<?xml version="1.0" encoding="UTF-8" standalone="no"?>
<!-- Created with Inkscape (http://www.inkscape.org/) -->

<svg
   width="113.3367mm"
   height="109.33608mm"
   viewBox="0 0 113.3367 109.33608"
   version="1.1"
   id="svg5"
   xml:space="preserve"
   inkscape:version="1.2.2 (732a01da63, 2022-12-09)"
   sodipodi:docname="logotipo.svg"
   xmlns:inkscape="http://www.inkscape.org/namespaces/inkscape"
   xmlns:sodipodi="http://sodipodi.sourceforge.net/DTD/sodipodi-0.dtd"
   xmlns="http://www.w3.org/2000/svg"
   xmlns:svg="http://www.w3.org/2000/svg"><sodipodi:namedview
     id="namedview7"
     pagecolor="#ffffff"
     bordercolor="#000000"
     borderopacity="0.25"
     inkscape:showpageshadow="2"
     inkscape:pageopacity="0.0"
     inkscape:pagecheckerboard="0"
     inkscape:deskcolor="#d1d1d1"
     inkscape:document-units="mm"
     showgrid="false"
     inkscape:zoom="1.0129245"
     inkscape:cx="160.92018"
     inkscape:cy="403.2877"
     inkscape:window-width="1920"
     inkscape:window-height="991"
     inkscape:window-x="-9"
     inkscape:window-y="-9"
     inkscape:window-maximized="1"
     inkscape:current-layer="layer2" /><defs
     id="defs2" /><g
     id="layer2"
     inkscape:label="svg"
     style="display:inline;fill:#00dfc4;fill-opacity:1"
     inkscape:groupmode="layer"
     transform="translate(-50.052674,-50.186072)"><path
       style="display:inline;fill:#00dfc4;fill-opacity:1;stroke-width:0.264583"
       d="m 121.6822,119.88491 c -0.54255,-2.96777 -1.76141,-5.44832 -3.49958,-7.5331 -1.39289,-1.68416 -2.42003,-2.79311 -4.37522,-3.5263 -2.73249,-1.35103 -4.83405,-1.05816 -7.67296,-0.55506 -3.16102,0.56776 -5.95208,1.76238 -8.783099,3.46099 -2.161687,1.46334 -4.084621,2.95902 -5.615959,4.83234 -1.344372,1.56345 -1.94162,3.12588 -2.807977,4.86499 -0.505445,1.83023 -0.675043,3.16886 -0.587721,5.06089 0.659435,3.04999 1.702015,5.38706 4.081365,7.05259 2.302897,1.38167 4.111071,1.41614 6.628135,1.33869 2.978666,-0.77678 4.818496,-2.26606 6.987296,-4.24462 1.57858,-1.99833 2.65614,-3.42433 3.23244,-5.81186 0.30936,-2.1053 0.25357,-3.39373 -0.91422,-4.93029 -0.98116,-1.20584 -2.32076,-0.88668 -3.19979,-0.78362 -0.6936,0.2865 -1.16838,0.79617 -1.69785,1.30603 -0.64646,0.69011 -0.90381,1.48152 -1.20808,2.35087 -0.41505,0.92881 -0.4857,2.01899 -0.91423,2.93858 -0.40939,0.82767 -0.80675,1.62648 -1.665198,2.02436 -1.247086,0.61629 -2.068773,0.37265 -3.363044,0 -0.63624,-0.69774 -1.080246,-1.50039 -1.534594,-2.31821 -0.217203,-1.0738 -0.0029,-1.92462 0.293863,-2.93859 0.73009,-2.37895 2.623825,-4.0921 4.407874,-5.4527 0.989909,-0.6569 2.014589,-1.25628 3.036529,-1.8611 1.94464,-0.99573 4.0146,-0.84885 5.97512,-0.84892 2.29029,0.20027 3.86265,1.30064 5.06089,3.19978 0.59821,0.71769 0.8445,1.51448 1.10794,2.38567 z"
       id="path948"
       sodipodi:nodetypes="ccccccccccccccccccccccccccc"
       inkscape:export-filename="path948.svg"
       inkscape:export-xdpi="92.044762"
       inkscape:export-ydpi="92.044762" /><path
       style="display:inline;fill:#00dfc4;fill-opacity:1;stroke-width:0.264583"
       d="m 102.84169,146.75151 -0.38336,-7.19196 c -2.62504,0.82056 -5.159519,1.17421 -7.882318,0.97 -2.159994,-0.60713 -4.245674,-1.79405 -5.746561,-3.00388 -3.419388,-3.05242 -5.252514,-8.33018 -5.093545,-12.53796 -0.06335,-2.19577 0.394554,-4.45127 0.848922,-6.29938 0.471224,-1.56341 1.184475,-3.01252 1.893755,-4.47542 l -6.334278,-4.96294 c -0.833536,0.97857 -1.865491,1.61489 -2.938584,2.28557 -0.837866,0.37527 -1.330865,0.38417 -2.15496,0.1306 l -4.309922,6.33428 c 2.27363,2.06368 2.706823,3.19911 3.591602,4.57113 1.170944,2.51776 1.640345,4.34864 2.677374,7.83622 0.712878,2.79987 1.959752,5.65856 3.13449,7.90152 4.315297,6.08263 10.563522,9.64984 20.374685,8.86916 z"
       id="path950"
       sodipodi:nodetypes="cccccccccccccccc" /><path
       style="fill:#00dfc4;fill-opacity:1;stroke-width:0.264583"
       d="m 105.12226,152.25123 c -4.19711,3.44404 -1.61323,8.45137 3.39569,7.01995 2.42738,-0.72687 4.4868,-2.09142 6.62814,-3.3957 l 3.00388,-2.18761 -5.87716,-6.30163 -3.75486,2.54678 c -1.08922,0.83727 -2.23919,1.58001 -3.39569,2.31821 z"
       id="path843"
       sodipodi:nodetypes="ccccccc" /><path
       style="fill:#00dfc4;fill-opacity:1;stroke-width:0.264583"
       d="m 110.95107,148.28273 5.69696,6.49894 c 2.47944,-1.55505 4.54772,-3.48792 6.58922,-5.54833 3.06647,-2.84931 5.77866,-6.05791 6.9263,-9.60447 l -7.25117,-2.49812 c -3.42995,5.50493 -7.10058,7.85507 -11.96131,11.15198 z"
       id="path941"
       sodipodi:nodetypes="cccccc" /><path
       style="fill:#00dfc4;fill-opacity:1;stroke-width:0.264583"
       d="m 122.03854,138.45916 0.87384,-1.32841 0.65764,-1.27028 0.68567,-1.7958 c 0.68382,-1.29096 1.10318,-2.70356 1.65728,-4.05267 0.44068,-1.71136 1.10079,-3.48904 1.18335,-5.08959 v -4.86498 c 0.1311,-0.91245 -0.4212,-2.88286 -0.78362,-4.24462 l 12.21145,2.80798 c -2.04035,5.39634 -3.70369,10.88573 -5.71392,15.86834 -0.87687,2.46027 -2.32969,4.91789 -3.25435,6.69046 0,0 -3.99415,-1.0092 -3.9615,-0.84595 0.0326,0.16326 -3.55584,-1.87448 -3.55584,-1.87448 z"
       id="path943"
       sodipodi:nodetypes="ccccccccccccc" /><path
       style="fill:#00dfc4;fill-opacity:1;stroke-width:0.264583"
       d="m 163.11029,94.720315 c 0.83563,3.479497 -0.15924,4.761661 -3.60793,6.220005 l -8.27701,-10.040163 c 3.81068,-1.068789 5.63581,-0.329223 7.60767,0.163256 1.16805,0.537503 2.15492,1.314341 3.16714,2.089658 0.48591,0.46303 0.81568,0.978353 1.11013,1.567244 z"
       id="path945"
       sodipodi:nodetypes="cccccc" /><path
       style="fill:#00dfc4;fill-opacity:1;stroke-width:0.264583"
       d="m 138.08082,119.80992 -4.45431,-11.70273 c 1.176,-0.5031 1.59947,-1.49878 2.22026,-2.57942 0.77204,-1.01977 1.46172,-2.09373 2.15496,-3.16714 0.77792,-1.05192 1.54753,-2.10992 2.31822,-3.16714 1.58184,-1.761008 1.72137,-1.744799 3.5263,-3.547197 0.73545,-0.668885 1.37739,-1.261155 2.15496,-1.807551 0.86572,-0.635749 1.79196,-1.175841 2.71002,-1.7305 2.58524,-1.499413 3.33102,-1.755967 5.68126,-0.359161 l 3.75486,3.897212 1.20808,2.959481 c -0.0261,1.445336 3.15747,1.496636 -0.65301,2.612076 -0.65423,0.13525 -1.26985,0.38863 -1.89376,0.62037 -1.0568,0.35643 -2.05853,0.83957 -3.06919,1.30603 -1.057,0.43955 -2.04531,1.00084 -3.03653,1.56725 -1.24495,0.47206 -2.27631,1.20726 -3.3304,1.9917 -0.82429,0.66516 -1.63732,1.34375 -2.44881,2.02436 -0.72173,0.72653 -1.42201,1.47327 -2.12231,2.22026 -1.01483,1.25478 -1.89597,1.98859 -2.57943,3.3957 -0.49297,0.90259 -0.91054,1.84119 -1.33868,2.77532 -0.15355,0.90209 -0.45107,1.74823 -0.76906,2.60028 z"
       id="path947"
       sodipodi:nodetypes="cccccccccccccccccccccc" /><path
       style="fill:#00dfc4;fill-opacity:1;stroke-width:0.264583"
       d="m 138.52415,118.62079 -0.51078,-3.90353 -1.66231,-6.27985 c -1.49232,-0.16088 -4.47902,-0.46176 -4.47902,-0.46176 -2.53327,-2.45325 -6.47097,-6.43689 -9.3736,-9.373601 -1.0111,-1.548805 -1.24922,-2.838685 -1.56996,-4.109607 l -6.8013,9.648328 1.0541,0.50793 c 1.71874,0.67145 2.87648,1.33481 4.03871,2.26492 1.33508,0.91719 2.00362,1.54449 2.81855,2.26259 1.02313,0.93195 1.75757,2.03259 2.49162,3.1861 0.65039,1.12612 1.31664,2.21754 1.78254,3.4505 l 3.15823,2.87552 z"
       id="path848"
       sodipodi:nodetypes="cccccccccccccc" /><path
       style="fill:#00dfc4;fill-opacity:1;stroke-width:0.264583"
       d="m 100.51897,147.17845 -0.32323,-7.06474 c 0.85259,-0.10063 1.51497,-0.29636 2.26259,-0.55416 1.07656,-0.46897 2.72172,-1.17366 3.83256,-1.75466 1.06211,-0.76233 2.08652,-1.56907 3.09375,-2.40112 1.0659,-1.20194 1.94342,-1.92617 2.88596,-3.46315 l 1.06203,-1.96245 c 0.53613,-1.45888 1.02147,-2.67405 1.22365,-3.97109 0.18762,-1.78631 0.41101,-3.7793 0.0924,-5.35634 -0.006,-0.78931 0.0983,-1.35466 -0.35984,-1.96241 h 7.03218 c 1.39775,3.79673 0.45551,8.21274 -0.59158,11.62143 -0.61518,1.70531 -1.53719,3.26816 -2.38351,4.86499 -1.07704,1.51952 -2.28516,2.92887 -3.49365,4.34257 -1.83337,1.69334 -3.85301,3.10924 -5.90982,4.50583 -4.68112,2.63054 -5.92193,2.75686 -8.42347,3.1553 z"
       id="path946"
       sodipodi:nodetypes="ccccccccccccccccc" /><path
       style="fill:#00dfc4;fill-opacity:1;stroke-width:0.264583"
       d="m 70.740838,118.00042 c -1.427207,-1.28074 -2.921096,-2.5957 -4.04871,-3.78751 -2.659473,-1.82977 -5.428821,-3.78909 -7.83622,-5.55065 -1.831481,-1.25661 -2.891809,-2.07187 -4.571129,-3.3957 -1.609109,-1.23179 -2.881503,-2.97775 -3.85281,-4.44052 -1.200935,-3.625309 0.466485,-6.333598 4.767033,-5.61596 2.110959,0.434416 3.383716,1.619405 5.093544,2.873279 3.257988,2.512451 5.813039,5.250931 8.946351,8.137631 1.854414,2.24496 3.48553,3.73101 5.811861,5.44515 3.904416,0.40587 2.121886,3.49227 2.08966,7.02219 l -2.612073,0.42222 z"
       id="path958"
       sodipodi:nodetypes="cccccccccccc" /><path
       style="fill:#00dfc4;fill-opacity:1;stroke-width:0.264583"
       d="m 72.259642,64.940201 c 3.548894,2.617983 4.362875,6.921008 5.818097,11.082089 1.095584,4.18472 2.472878,7.926723 4.063431,11.728545 1.256383,3.526445 2.703359,6.113821 4.419217,9.419776 0.651199,1.490434 1.549483,2.066665 2.876494,2.862869 l 5.541044,6.18751 c -3.592609,2.13407 -6.503074,5.16003 -8.499342,7.99192 l -1.75159,1.5999 -3.60168,-2.57317 -1.015857,-1.01586 0.03485,-2.97381 v 0 c 0.626396,-1.95193 0.42353,-3.41157 -0.05166,-5.31071 -1.295481,-2.35355 -2.148264,-4.529455 -3.400169,-6.95335 -1.268937,-3.053439 -3.097631,-6.22279 -4.155784,-8.773322 -1.52136,-3.08299 -3.382382,-6.051517 -4.986941,-8.496268 -2.226058,-3.286304 -3.74627,-7.159075 -3.324627,-10.712688 0.354459,-4.518963 3.095577,-6.490723 8.034513,-4.063431 z"
       id="path960"
       sodipodi:nodetypes="ccccccccccccccccccc" /><path
       style="fill:#00dfc4;fill-opacity:1;stroke-width:0.264583"
       d="m 109.29229,103.05798 c 2.34739,0.309 3.94219,0.65264 5.88899,1.59072 l 5.7472,-10.156256 -10.71269,-2.147154 c -0.42901,1.303244 -1.73226,2.757313 -3.00139,3.024486 l -1.80364,0.06926 c -1.62261,0.199674 -2.32071,-0.956991 -2.88316,-2.170242 l -9.373601,1.131297 0.04618,0.484841 c -0.115509,2.297144 -0.61901,3.94148 -2.28567,4.571362 -0.909999,0.221594 -1.583042,0.51393 -2.343401,0.05771 l -0.103894,1.050496 c 0,0 0.600281,0.96968 0.623369,1.06204 0.0231,0.0923 5.887342,4.59445 5.887342,4.59445 5.765785,-2.77488 8.124435,-3.53241 14.314365,-3.16301 z"
       id="path962"
       sodipodi:nodetypes="ccccccccccccscc" /><path
       style="fill:#00dfc4;fill-opacity:1;stroke-width:0.264583"
       d="m 93.200177,94.884933 -0.04618,-0.484841 c -1.487523,-9.488299 -3.451565,-18.771804 -5.924444,-27.400406 -0.921104,-2.50656 -1.57574,-4.430685 -2.18761,-6.954647 -0.314023,-2.652677 0.248309,-4.502446 1.273385,-6.236324 0.741631,-1.23733 1.577325,-1.913199 2.644725,-2.775328 1.298937,-0.668139 2.273066,-0.946009 3.656904,-0.816278 1.463344,0.07037 2.172526,0.826528 3.199789,1.763149 1.379273,1.756713 1.955032,3.300809 2.15496,5.420053 0.434099,3.739879 0.346087,6.447171 0.489759,9.991182 0.18413,3.755551 0.416486,6.733143 0.848923,10.480945 l 0.750972,5.942468 c 0.45189,2.875853 0.96375,5.039501 1.66519,7.705616 0.46113,0.984017 0.90159,1.977111 1.33869,2.971916 l -9.174905,1.17475 z"
       id="path964"
       sodipodi:nodetypes="cccccccccccccccc" /><path
       style="fill:#00dfc4;fill-opacity:1;stroke-width:0.264583"
       d="m 109.94009,92.989125 2.39977,0.903036 8.58862,1.20056 -0.16161,-2.031717 -0.0231,-3.48624 0.1847,-4.063433 0.20779,-1.893189 0.46175,-3.670943 0.43867,-2.955224 0.69263,-3.48624 0.53102,-3.809468 0.25396,-4.963853 -0.11544,-5.263992 -0.5541,-1.754663 -0.43867,-1.500701 -0.99277,-1.339085 -1.33908,-0.854245 -2.23951,-0.277053 -1.29291,0.323228 -0.90042,0.692632 -1.08512,1.20056 -0.80807,1.269823 -0.64645,1.500698 -0.50793,1.685401 -0.48485,2.28568 -0.1847,1.870104 0.1847,2.49347 0.25397,4.017256 0.39249,3.694031 -0.0231,5.702659 -0.30014,1.962452 -0.32323,2.608908 -0.60028,2.701261 -0.53101,2.37803 -0.41558,1.662313 z"
       id="path1134" /></g></svg>
